<?xml version="1.0" encoding="UTF-8"?><svg xmlns="http://www.w3.org/2000/svg" xmlns:xlink="http://www.w3.org/1999/xlink" viewBox="0 0 292.52 150.16"><defs><style>.cls-1{fill:none;}.cls-2{clip-path:url(#clippath);}.cls-3{fill:#ebe7c7;}.cls-4{fill:#eae6c6;}.cls-5{fill:#e3e5e5;}.cls-6{fill:#f69220;}.cls-7,.cls-8{fill:#8f9495;}.cls-9{fill:#323d48;}.cls-10{fill:#329fc6;}.cls-11{fill:#a9aaaa;}.cls-12{fill:#d8d6af;}.cls-13{fill:#c9cbcb;}.cls-14{fill:#131721;}.cls-15,.cls-16,.cls-17{fill:#414141;}.cls-18{fill:#182127;}.cls-19{fill:#3f3643;}.cls-20{fill:#a41e23;}.cls-21{fill:#29222c;}.cls-22{fill:#2a85a6;}.cls-23{fill:#322a36;}.cls-16{opacity:.15;}.cls-16,.cls-17,.cls-24,.cls-8,.cls-25,.cls-26{mix-blend-mode:multiply;}.cls-17{opacity:.21;}.cls-27{clip-path:url(#clippath-1);}.cls-24{fill:#404041;opacity:.3;}.cls-8,.cls-25{opacity:.4;}.cls-28{isolation:isolate;}.cls-26{opacity:.2;}.cls-29{opacity:.25;}.cls-29,.cls-30{fill:#fff;mix-blend-mode:overlay;}.cls-30{opacity:.3;}</style><clipPath id="clippath"><path class="cls-1" d="M194.71,68.8l3.63-17.06s-29.06-.4-38.29,0c0,0-13.3,4.03-35.47,20.55l70.13-3.49Z"/></clipPath><clipPath id="clippath-1"><path class="cls-1" d="M201.3,51.88l-1.34,16.88,63.72-1.66-12.54-11.64s-32.42-3.3-49.84-3.58Z"/></clipPath></defs><g class="cls-28"><g id="Layer_2"><g id="Layer_1-2"><g><g><circle class="cls-24" cx="73.9" cy="61.17" r="19.95"/><circle class="cls-24" cx="48.56" cy="64.48" r="19.71"/><circle class="cls-24" cx="12.56" cy="57.2" r="11.29"/><circle class="cls-24" cx="12.47" cy="12.47" r="12.47"/><circle class="cls-24" cx="81.26" cy="24.94" r="6.92"/><circle class="cls-24" cx="87.62" cy="83.72" r="17.35"/><circle class="cls-24" cx="48.02" cy="36.62" r="25.08"/></g><path class="cls-3" d="M287.06,94.34c-.05,2.04-.17,4.21-.4,6.44l-1.19-.03c-1.05-.02-1.87-.89-1.85-1.94l.06-2.66c.02-1.05,.89-1.87,1.94-1.85l1.45,.03Z"/><g><polygon class="cls-14" points="275.21 126.52 65.36 126.03 61.43 121 68.3 102.58 93.1 93.54 264.46 93.54 284.26 110.79 275.21 126.52"/><path class="cls-22" d="M291.01,104.16l.65-4.07v-10.73l-2.25-1.77-.43-8.35c-1-4.24-6.79-7.05-6.79-7.05l-19.97-18.5c-.62-.57-1.39-.96-2.22-1.11-31.26-5.8-88.01-5.3-88.01-5.3-12.8,0-19.72,3.11-19.72,3.11l-40.78,25.13,.12-.07c-.9,1.6-2.06,3.52-2.55,3.78-.87,.47-46.84,4.58-52.21,7.9-.21,.25-.33,.41-.33,.41l-4.41,7.61-2.42,3.24c-.96,1.85-1.26,4.85-1.34,7.02-.06,1.61,.23,3.21,.84,4.7l5.69,13.98,10.49,1.93c-.1-.93-.16-1.87-.16-2.82,0-13.81,11.2-25.02,25.02-25.02s25.02,11.2,25.02,25.02c0,1.12-.07,2.23-.22,3.31h110.6c-.14-1.08-.22-2.19-.22-3.31,0-13.81,11.2-25.02,25.02-25.02s25.02,11.2,25.02,25.02c0,1.12-.07,2.23-.22,3.31h1.87l6.29-1.33,1.47-.69c4.42-3.73,6.82-13.07,6.82-13.07l.86-5.97-1.51-1.3Z"/><g><path class="cls-9" d="M107.07,75.08s-.22,5.28-5.93,6.04c-5.71,.76,9.2,.46,9.2,.46l3.53-1.83s-.09-1.26,0-1.57-.26-1.88-.39-2.09-1.92-.55-1.92-.55l-4.49-.45Z"/><path class="cls-10" d="M111.48,75.53h.08c-14.57-24.45-29.81-40.71-29.81-40.71-1.88-1.52-4.61-2.22-5.73-2.46,5.42,3.23,30.23,42.16,31.05,42.72,.46,.32,2.57,.39,4.41,.45Z"/><path class="cls-10" d="M288.98,79.25c-1-4.24-6.79-7.05-6.79-7.05l-19.97-18.5c-.62-.57-1.39-.96-2.22-1.11-31.26-5.8-88.01-5.3-88.01-5.3-12.8,0-19.72,3.11-19.72,3.11l-40.66,25.05c-.9,1.6-2.06,3.52-2.55,3.78-.87,.47-46.85,4.58-52.21,7.9l31.02-2.96,181.54-4.84h19.58v-.09Z"/></g><path class="cls-16" d="M168.27,140.5c67.26,0,121.78,2.16,121.78,4.83s-54.52,4.83-121.78,4.83-121.78-2.16-121.78-4.83,54.52-4.83,121.78-4.83Z"/><g><path class="cls-21" d="M67.95,123.21c0,12.3,9.97,22.26,22.26,22.26,12.3,0,22.26-9.97,22.26-22.26s-9.97-22.27-22.26-22.27-22.26,9.97-22.26,22.27Z"/><path class="cls-19" d="M67.95,123.21c0,12.3,9.97,22.26,22.26,22.26,12.3,0,22.26-9.97,22.26-22.26s-9.97-22.27-22.26-22.27-22.26,9.97-22.26,22.27Zm3.26,8.03c-1.07-2.54-1.62-5.24-1.62-8.03s.54-5.49,1.62-8.03c1.04-2.46,2.53-4.66,4.42-6.56,1.89-1.89,4.1-3.38,6.56-4.42,2.54-1.08,5.24-1.62,8.03-1.62,2.79,0,5.49,.55,8.03,1.62,2.46,1.04,4.66,2.53,6.56,4.42,1.89,1.89,3.38,4.1,4.42,6.56,1.08,2.54,1.62,5.24,1.62,8.03s-.54,5.49-1.62,8.03c-1.04,2.46-2.53,4.66-4.42,6.56-1.89,1.89-4.1,3.38-6.56,4.42-2.54,1.08-5.24,1.62-8.03,1.62-2.79,0-5.49-.54-8.03-1.62-2.46-1.04-4.66-2.53-6.56-4.42-1.89-1.89-3.38-4.1-4.42-6.56Z"/><path class="cls-19" d="M72.85,123.21c0,9.58,7.79,17.37,17.37,17.37,9.58,0,17.37-7.79,17.37-17.37,0-9.58-7.79-17.37-17.37-17.37s-17.37,7.79-17.37,17.37Zm3.43-5.89c.76-1.8,1.85-3.42,3.24-4.81,1.39-1.39,3.01-2.48,4.81-3.24,1.86-.79,3.84-1.19,5.89-1.19s4.02,.4,5.89,1.19c1.8,.76,3.42,1.85,4.81,3.24,1.39,1.39,2.48,3.01,3.24,4.81,.79,1.86,1.19,3.84,1.19,5.89s-.4,4.02-1.19,5.89c-.76,1.8-1.85,3.42-3.24,4.81-1.39,1.39-3.01,2.48-4.81,3.24-1.86,.79-3.84,1.19-5.89,1.19s-4.02-.4-5.89-1.19c-1.8-.76-3.42-1.85-4.81-3.24-1.39-1.39-2.48-3.01-3.24-4.81-.79-1.86-1.19-3.84-1.19-5.89s.4-4.02,1.19-5.89Z"/><path class="cls-5" d="M90.22,108.27c-8.25,0-14.93,6.69-14.93,14.93s6.69,14.93,14.93,14.93,14.93-6.69,14.93-14.93-6.69-14.93-14.93-14.93Zm13.75,14.93c0,.64-.06,1.27-.14,1.89l-4.67-.2-2.77-1.84,2.77-1.83,4.63-.2c.11,.71,.19,1.44,.19,2.18Zm-10.3,2.92c.23,.14,.43,.33,.59,.58l.69,1.08-1.09-.69c-.24-.15-.43-.35-.57-.57-.05-.21-.12-.42-.22-.61,.19,.09,.39,.16,.6,.21Zm-.61-5.92c.09-.19,.16-.39,.21-.6,.14-.23,.33-.43,.58-.59l1.08-.69-.69,1.09c-.15,.24-.35,.43-.57,.57-.21,.05-.42,.12-.61,.22Zm1.55,4.32c-.15-.16-.31-.3-.49-.42,.21-.02,.42-.05,.62-.12,.27,0,.54,.07,.8,.21l1.14,.59-1.29-.05c-.28-.01-.55-.09-.78-.21Zm.92-2.6c-.25,.13-.52,.19-.78,.21-.21-.06-.42-.1-.64-.12,.17-.12,.34-.25,.48-.41,.24-.13,.51-.21,.8-.22l1.28-.05-1.14,.6Zm.02-1.95l1.48-2.97,3.87-2.46c.85,1.05,1.55,2.23,2.06,3.5l-4.09,2.14-3.32-.21Zm.72-3.74l-2.98,1.48-.2-3.31,2.1-4.02c1.28,.5,2.47,1.17,3.53,2.01l-2.44,3.84Zm-3.29-3.53l-.19-3.01c.64,.12,1.25,.29,1.86,.49l-1.67,2.52Zm.02,20.71l1.81,2.73c-.65,.23-1.32,.42-2.01,.55l.2-3.28Zm.1-1.69l.21-3.32,2.97,1.48,2.56,4.03c-1.06,.85-2.24,1.55-3.52,2.06l-2.21-4.24Zm2.46-5.58l3.31-.2,4.18,2.18c-.49,1.29-1.17,2.48-2.01,3.55l-4-2.54-1.48-2.98Zm5.01-.31l3.17-.2c-.12,.67-.29,1.33-.5,1.97l-2.67-1.77Zm0-5.55l2.59-1.72c.22,.62,.41,1.25,.55,1.91l-3.13-.19Zm-.04-6.17l-2.74,1.36,1.36-2.73c.49,.42,.95,.88,1.38,1.37Zm-8.29-4.5l-.19,4.51-1.84,2.77-1.83-2.77-.19-4.51c.67-.1,1.35-.17,2.05-.17s1.35,.07,2.01,.16Zm-.96,17.35c.12,.17,.25,.34,.41,.48,.13,.24,.21,.51,.22,.8l.05,1.28-.6-1.14c-.13-.25-.19-.52-.21-.78,.06-.21,.1-.42,.12-.64Zm-.14-8.42c0-.27,.07-.54,.21-.8l.59-1.14-.05,1.29c-.01,.29-.09,.55-.21,.78-.16,.15-.3,.31-.42,.49-.02-.21-.05-.42-.12-.62Zm-2.59,9.7c.01-.28,.09-.55,.21-.78,.16-.15,.3-.31,.42-.49,.02,.21,.05,.42,.12,.62,0,.27-.07,.54-.21,.8l-.59,1.14,.05-1.29Zm-.08-11.64l.6,1.14c.13,.25,.19,.52,.21,.78-.06,.21-.1,.42-.12,.64-.12-.17-.25-.34-.41-.48-.13-.24-.21-.51-.22-.8l-.05-1.28Zm-12,6.59c0-.74,.07-1.45,.19-2.16l4.61,.2,2.77,1.84-2.77,1.83-4.66,.2c-.09-.63-.15-1.26-.15-1.91Zm8.43,1.01c.25-.13,.52-.19,.78-.21,.21,.06,.42,.1,.64,.12-.17,.12-.34,.25-.48,.41-.24,.13-.51,.21-.8,.22l-1.28,.05,1.14-.6Zm-.01-2.27l-1.14-.59,1.29,.05c.28,.01,.55,.09,.78,.21,.15,.16,.31,.3,.49,.42-.21,.02-.42,.05-.62,.12-.27,0-.54-.07-.8-.21Zm1.3,4.78c.15-.24,.35-.43,.57-.57,.21-.05,.42-.12,.61-.22-.09,.19-.16,.39-.21,.6-.14,.23-.33,.43-.58,.59l-1.08,.69,.69-1.09Zm.57-6.71c-.23-.14-.43-.33-.59-.58l-.69-1.08,1.09,.69c.24,.15,.43,.35,.57,.57,.05,.21,.12,.42,.22,.61-.19-.09-.39-.16-.6-.21Zm.36-2.28l-2.97-1.48-2.44-3.84c1.06-.84,2.24-1.52,3.52-2.02l2.09,4.01-.21,3.32Zm-2.25,2.26l-3.31,.21-4.08-2.13c.51-1.27,1.21-2.45,2.06-3.5l3.85,2.45,1.48,2.98Zm-5.01,.31l-3.12,.19c.13-.65,.32-1.29,.54-1.9l2.58,1.71Zm0,5.55l-2.66,1.76c-.21-.63-.38-1.29-.51-1.96l3.16,.2Zm1.69,.1l3.32,.21-1.48,2.97-3.99,2.54c-.84-1.07-1.51-2.26-2.01-3.54l4.16-2.17Zm2.61,3.94l2.98-1.48,.21,3.31-2.21,4.24c-1.28-.51-2.47-1.2-3.52-2.05l2.55-4.01Zm3.29,3.53l.2,3.28c-.69-.13-1.36-.32-2.01-.55l1.81-2.73Zm-.02-20.71l-1.67-2.51c.6-.21,1.22-.38,1.85-.5l-.19,3.01Zm-6.16,.06l1.35,2.72-2.73-1.36c.43-.49,.88-.94,1.37-1.36Zm-1.53,19.32l2.9-1.44-1.45,2.9c-.52-.45-1.01-.94-1.45-1.46Zm8.44,4.69l.2-4.77,1.84-2.77,1.83,2.77,.2,4.78c-.67,.1-1.35,.17-2.04,.17s-1.37-.07-2.04-.17Zm11.07-3.23l-1.45-2.91,2.91,1.45c-.45,.53-.94,1.01-1.45,1.47Z"/><circle class="cls-13" cx="90.22" cy="123.21" r="2.84"/><circle class="cls-11" cx="90.22" cy="123.21" r="1.8"/></g><path class="cls-10" d="M90.22,94.27c-15.23,0-27.69,11.79-28.78,26.73-.05-.7-.08-1.41-.08-2.13,0-15.94,12.92-28.86,28.86-28.86,15.94,0,28.86,12.92,28.86,28.86,0,.72-.03,1.43-.08,2.13-1.09-14.94-13.56-26.73-28.78-26.73Z"/><path class="cls-10" d="M250.42,94.27c-15.23,0-27.69,11.79-28.78,26.73-.05-.7-.08-1.41-.08-2.13,0-15.94,12.92-28.86,28.86-28.86,15.94,0,28.86,12.92,28.86,28.86,0,.72-.03,1.43-.08,2.13-1.09-14.94-13.56-26.73-28.78-26.73Z"/><g><path class="cls-9" d="M225.69,119.41c-.19,1.24-.29,2.51-.29,3.8,0,1.12,.08,2.23,.22,3.31H122.86s-7.84,0-7.84,0c.14-1.08,.22-2.19,.22-3.31,0-1.29-.1-2.56-.29-3.8h110.74Z"/><path class="cls-9" d="M288.6,119.41c-1.01,1.95-2.27,3.84-3.76,5.09l-1.47,.69-6.29,1.33h-1.87c.14-1.08,.22-2.19,.22-3.31,0-1.29-.1-2.56-.29-3.8h13.45Z"/><path class="cls-9" d="M65.49,119.41c-.19,1.24-.29,2.51-.29,3.8,0,.95,.06,1.89,.16,2.82l-10.49-1.93-1.91-4.69h12.53Z"/></g><path class="cls-9" d="M171.99,47.29s56.64-.5,87.93,5.28c.89,.16,1.7,.57,2.37,1.18l16.65,15.35-167.45,6.43,40.78-25.13s6.92-3.11,19.72-3.11Z"/><path class="cls-20" d="M288.98,79.34l.43,8.26,.51,.4c-4.12-.05-9.03-.32-9.03-.32-6.79-.54-11.12-6.72-11.12-6.72-.87-.94-.36-1.62-.36-1.62h19.58Z"/><path class="cls-9" d="M96.77,84.28l29.23-1.66c.58-.03,.85,.71,.38,1.06-2.09,1.54-3.91,2.07-3.91,2.07l-16.87,1.14c-3.89,.18-7.18-.96-8.98-1.76-.43-.19-.31-.82,.16-.85Z"/><path class="cls-23" d="M194.71,68.8l3.63-17.06s-29.06-.4-38.29,0c0,0-13.3,4.03-35.47,20.55l70.13-3.49Z"/><g class="cls-2"><g><polygon class="cls-29" points="154.27 35.15 179.24 88.71 156.86 88.71 131.88 35.15 154.27 35.15"/><polygon class="cls-29" points="188.99 35.15 213.97 88.71 205.99 88.71 181.02 35.15 188.99 35.15"/><polygon class="cls-29" points="120.85 35.15 145.83 88.71 132.64 88.71 107.67 35.15 120.85 35.15"/><polygon class="cls-29" points="172.52 35.15 197.49 88.71 192.35 88.71 167.37 35.15 172.52 35.15"/><polygon class="cls-29" points="165.47 35.15 190.45 88.71 187.13 88.71 162.16 35.15 165.47 35.15"/></g></g><path class="cls-23" d="M201.3,51.87l-1.34,16.88,63.72-1.66-12.54-11.64s-32.42-3.31-49.84-3.58Z"/><g class="cls-27"><g><polygon class="cls-29" points="221.08 41.98 246.06 95.54 223.67 95.54 198.69 41.98 221.08 41.98"/><polygon class="cls-29" points="255.81 41.98 280.78 95.54 272.8 95.54 247.83 41.98 255.81 41.98"/><polygon class="cls-29" points="187.66 41.98 212.64 95.54 199.46 95.54 174.48 41.98 187.66 41.98"/><polygon class="cls-29" points="239.33 41.98 264.31 95.54 259.16 95.54 234.18 41.98 239.33 41.98"/><polygon class="cls-29" points="232.28 41.98 257.26 95.54 253.94 95.54 228.97 41.98 232.28 41.98"/></g></g><g><path class="cls-14" d="M122.07,73.2l2.56-.13,70.13-3.49,.6-.03,.12-.59,3.63-17.06,.2-.93h-.95c-.13-.01-13.05-.19-24.27-.19v.78s0-.78,0-.78c-6.6,0-11.33,.06-14.06,.18h-.1s-.1,.03-.1,.03c-.14,.04-3.46,1.06-9.54,4.13-5.59,2.82-14.67,7.98-26.16,16.55l-2.05,1.53Zm2.52-.9c22.17-16.52,35.47-20.55,35.47-20.55,3.08-.13,8.35-.18,14.03-.18,11.34,0,24.26,.18,24.26,.18l-3.63,17.06-70.13,3.49Z"/><path class="cls-14" d="M199.18,68.7l-.07,.86,.86-.02,63.72-1.66,1.91-.05-1.4-1.3-12.54-11.64-.19-.18-.26-.03c-.32-.03-32.66-3.31-49.91-3.59h-.73s-.06,.72-.06,.72l-1.34,16.88Zm.78,.06l1.34-16.88c17.42,.28,49.84,3.58,49.84,3.58l12.54,11.64-63.72,1.66Z"/></g><path class="cls-9" d="M247.53,50.73s9.96-1.07,20.69,1.15l.78,1.14s-1.7,.73-9.77,5.52l-11.7-7.81Z"/><g><path class="cls-4" d="M52.1,95.16l4.41-7.61s.12-.16,.33-.41l31.02-2.96s-1.51,2.14-5.84,4.27l-6.98,1.56s-3.39,1.25-4.74,2.55l-18.47,2.97,.27-.37Z"/><path class="cls-12" d="M56.88,90.44c-.5,1.46-.36,2.84,.31,3.06,.67,.23,1.62-.77,2.12-2.24,.5-1.46,.36-2.84-.31-3.06-.67-.23-1.62,.77-2.12,2.24Z"/><path class="cls-12" d="M60.5,89.91c-.46,1.36-.33,2.63,.29,2.84,.62,.21,1.5-.72,1.96-2.07,.46-1.36,.33-2.63-.29-2.84-.62-.21-1.5,.72-1.96,2.07Z"/><path class="cls-12" d="M63.96,89.43c-.43,1.25-.31,2.43,.27,2.62,.57,.2,1.39-.66,1.81-1.92,.43-1.25,.31-2.43-.27-2.62-.57-.2-1.39,.66-1.81,1.92Z"/><path class="cls-12" d="M67.31,89.05c-.4,1.18-.29,2.29,.25,2.48,.54,.18,1.31-.63,1.71-1.81,.4-1.18,.29-2.29-.25-2.48-.54-.18-1.31,.63-1.71,1.81Z"/><path class="cls-6" d="M73.59,85.54l14.26-1.36s-1.51,2.14-5.84,4.27l-6.98,1.56s-3.39,1.25-4.74,2.55l-.31,.05,3.6-7.08Z"/><path class="cls-15" d="M51.83,95.53l18.47-2.97c1.35-1.3,4.74-2.55,4.74-2.55l6.98-1.56c4.32-2.14,5.84-4.27,5.84-4.27l-31.02,2.96c-.21,.26-.33,.41-.33,.41l-4.41,7.61-.27,.37Zm1.06-.7l4.05-7s.08-.1,.16-.2l29.44-2.81c-.84,.79-2.34,1.96-4.7,3.13l-6.92,1.55h-.03s-.03,.02-.03,.02c-.14,.05-3.32,1.23-4.8,2.55l-17.17,2.76Z"/><path class="cls-30" d="M56.51,87.55s.12-.16,.33-.41l31.02-2.96s-.43,.61-1.48,1.49l-32.2,5.92,2.34-4.04Z"/></g><g><path class="cls-17" d="M189,82.41l-.1-3.41c-.02-.52-.43-.94-.91-.92l-11.81,.35c-.49,.01-.87,.45-.86,.98l.1,3.41c.02,.52,.43,.94,.91,.92l11.81-.34c.49-.01,.87-.45,.86-.98Z"/><path class="cls-18" d="M188.08,81.24l-11.82,.34c-.49,.01-.9-.4-.91-.92l-.04-1.27c-.02-.52,.37-.96,.86-.98l11.81-.35c.49-.01,.9,.4,.91,.92l.04,1.27c.02,.52-.37,.96-.86,.98Z"/></g><path class="cls-4" d="M289.02,83.45l.39,4.14,.51,.4c-.97-.01-.05-.51-1.03-.54-3.55-.32-9.3-.2-11.22-4.01h11.35Z"/><path class="cls-15" d="M269.76,80.96s4.33,6.18,11.12,6.72c0,0,4.91,.27,9.03,.32l-.51-.4-.43-8.26h-19.58s-.51,.69,.36,1.62Zm.01-1.11h18.72s.39,7.6,.39,7.6c-3.74-.07-7.77-.29-7.96-.3-6.45-.52-10.69-6.44-10.73-6.5l-.02-.03-.02-.03c-.3-.33-.37-.59-.37-.75Z"/><polygon class="cls-10" points="225.69 105.84 121.28 109.57 121.28 112.26 223.02 112.26 225.69 105.84"/><path class="cls-8" d="M121.55,75.08l1.03,.09-1.31,14.86v26.63s60.03,0,60.03,0c.61-.56,3.28-3.18,6.2-9.08,3.06-6.19,7.02-17.34,8.53-35.33l1.03,.09c-1.53,18.22-5.56,29.53-8.68,35.8-3.41,6.86-6.43,9.35-6.56,9.45l-.14,.12h-61.45v-27.69s1.31-14.93,1.31-14.93Z"/><path class="cls-9" d="M61.52,102.32c-.66,2.83-1.82,8.3-2.14,12.78-.03,.36-.33,.64-.69,.64h-3.36c-.41,0-.8-.16-1.09-.46-1.15-1.17-3.75-4.75-2.9-12.78,0,0,.3-1.36,1.28-1.64l7.41-.34c.97-.04,1.72,.85,1.5,1.8Z"/><path class="cls-9" d="M124.59,72.29c5.01-3.74,9.57-6.83,13.63-9.39l-.74,8.75-12.89,.64Z"/><g class="cls-26"><path class="cls-7" d="M95.61,98.78H245.02c-11.22,2.47-19.62,12.47-19.62,24.43,0,1.12,.08,2.23,.22,3.31H122.86s-7.84,0-7.84,0c.14-1.08,.22-2.19,.22-3.31,0-11.96-8.4-21.96-19.62-24.43Z"/></g><g class="cls-25"><path class="cls-7" d="M124.59,72.29l70.13-3.49,3.63-17.06s-12.92-.18-24.26-.18c-5.67,0-10.95,.04-14.03,.18,0,0-13.3,4.03-35.47,20.55Zm69.62-4.09l-67.61,3.37c10.62-7.77,19.01-12.53,24.27-15.18,5.51-2.78,8.78-3.88,9.3-4.04,2.72-.12,7.41-.17,13.92-.17h0c9.66,0,20.58,.13,23.5,.17l-3.37,15.86Z"/><path class="cls-7" d="M201.3,51.87l-1.34,16.88,63.72-1.66-12.54-11.64s-32.42-3.31-49.84-3.58Zm-.67,16.25l1.24-15.62c16.59,.32,46.24,3.27,49.01,3.55l11.28,10.47-61.53,1.6Z"/></g><g><path class="cls-22" d="M141.43,68.02v-6.02s-.09-.97-1.85-.97c0,0-3.88,.45-5.17,2.24,0,0-1.81,3.14-2.28,6.77,0,0,.47,1.53,1.55,1.46,0,0,3.92-.22,5.73-1.12,0,0,2.03-1.16,2.03-2.36Z"/><path class="cls-10" d="M139.58,61.02c.17,0,.32,0,.46,.03-1.09,1.32-4.22,5.45-5.11,10.33-.74,.08-1.25,.11-1.25,.11-1.08,.08-1.55-1.46-1.55-1.46,.47-3.63,2.28-6.77,2.28-6.77,1.29-1.8,5.17-2.24,5.17-2.24Z"/></g><g><path class="cls-21" d="M228.15,123.21c0,12.3,9.97,22.26,22.26,22.26,12.3,0,22.26-9.97,22.26-22.26s-9.97-22.27-22.26-22.27-22.26,9.97-22.26,22.27Z"/><path class="cls-19" d="M228.15,123.21c0,12.3,9.97,22.26,22.26,22.26,12.3,0,22.26-9.97,22.26-22.26s-9.97-22.27-22.26-22.27-22.26,9.97-22.26,22.27Zm3.26,8.03c-1.07-2.54-1.62-5.24-1.62-8.03s.54-5.49,1.62-8.03c1.04-2.46,2.53-4.66,4.42-6.56,1.89-1.89,4.1-3.38,6.56-4.42,2.54-1.08,5.24-1.62,8.03-1.62,2.79,0,5.49,.55,8.03,1.62,2.46,1.04,4.66,2.53,6.56,4.42,1.89,1.89,3.38,4.1,4.42,6.56,1.08,2.54,1.62,5.24,1.62,8.03,0,2.78-.54,5.49-1.62,8.03-1.04,2.46-2.53,4.66-4.42,6.56-1.89,1.89-4.1,3.38-6.56,4.42-2.54,1.08-5.24,1.62-8.03,1.62-2.79,0-5.49-.54-8.03-1.62-2.46-1.04-4.66-2.53-6.56-4.42-1.89-1.89-3.38-4.1-4.42-6.56Z"/><path class="cls-19" d="M233.05,123.21c0,9.58,7.79,17.37,17.37,17.37,9.58,0,17.37-7.79,17.37-17.37,0-9.58-7.79-17.37-17.37-17.37s-17.37,7.79-17.37,17.37Zm3.43-5.89c.76-1.8,1.85-3.42,3.24-4.81,1.39-1.39,3.01-2.48,4.81-3.24,1.86-.79,3.84-1.19,5.89-1.19s4.02,.4,5.89,1.19c1.8,.76,3.42,1.85,4.81,3.24,1.39,1.39,2.48,3.01,3.24,4.81,.79,1.86,1.19,3.84,1.19,5.89s-.4,4.02-1.19,5.89c-.76,1.8-1.85,3.42-3.24,4.81-1.39,1.39-3.01,2.48-4.81,3.24-1.86,.79-3.84,1.19-5.89,1.19s-4.02-.4-5.89-1.19c-1.8-.76-3.42-1.85-4.81-3.24-1.39-1.39-2.48-3.01-3.24-4.81-.79-1.86-1.19-3.84-1.19-5.89,0-2.04,.4-4.02,1.19-5.89Z"/><path class="cls-5" d="M250.42,108.27c-8.25,0-14.93,6.69-14.93,14.93s6.69,14.93,14.93,14.93,14.93-6.69,14.93-14.93-6.69-14.93-14.93-14.93Zm13.75,14.93c0,.64-.06,1.27-.14,1.89l-4.67-.2-2.77-1.84,2.77-1.83,4.63-.2c.11,.71,.19,1.44,.19,2.18Zm-10.3,2.92c.23,.14,.43,.33,.59,.58l.69,1.08-1.09-.69c-.24-.15-.43-.35-.57-.57-.05-.21-.12-.42-.22-.61,.19,.09,.39,.16,.6,.21Zm-.61-5.92c.09-.19,.16-.39,.21-.6,.14-.23,.33-.43,.58-.59l1.08-.69-.69,1.09c-.15,.24-.35,.43-.57,.57-.21,.05-.42,.12-.61,.22Zm1.55,4.32c-.15-.16-.31-.3-.49-.42,.21-.02,.42-.05,.62-.12,.27,0,.54,.07,.8,.21l1.14,.59-1.29-.05c-.28-.01-.55-.09-.78-.21Zm.92-2.6c-.25,.13-.52,.19-.78,.21-.21-.06-.42-.1-.64-.12,.17-.12,.34-.25,.48-.41,.24-.13,.51-.21,.8-.22l1.28-.05-1.14,.6Zm.02-1.95l1.48-2.97,3.87-2.46c.85,1.05,1.55,2.23,2.06,3.5l-4.09,2.14-3.32-.21Zm.72-3.74l-2.98,1.48-.2-3.31,2.1-4.02c1.28,.5,2.47,1.17,3.53,2.01l-2.44,3.84Zm-3.29-3.53l-.19-3.01c.64,.12,1.25,.29,1.86,.49l-1.67,2.52Zm.02,20.71l1.81,2.73c-.65,.23-1.32,.42-2.01,.55l.2-3.28Zm.1-1.69l.21-3.32,2.97,1.48,2.56,4.03c-1.06,.85-2.24,1.55-3.52,2.06l-2.21-4.24Zm2.46-5.58l3.31-.2,4.18,2.18c-.49,1.29-1.17,2.48-2.01,3.55l-4-2.54-1.48-2.98Zm5.01-.31l3.17-.2c-.12,.67-.29,1.33-.5,1.97l-2.67-1.77Zm0-5.55l2.59-1.72c.22,.62,.41,1.25,.55,1.91l-3.13-.19Zm-.04-6.17l-2.74,1.36,1.36-2.73c.49,.42,.95,.88,1.38,1.37Zm-8.29-4.5l-.19,4.51-1.84,2.77-1.83-2.77-.19-4.51c.67-.1,1.35-.17,2.05-.17s1.35,.07,2.01,.16Zm-.96,17.35c.12,.17,.25,.34,.41,.48,.13,.24,.21,.51,.22,.8l.05,1.28-.6-1.14c-.13-.25-.19-.52-.21-.78,.06-.21,.1-.42,.12-.64Zm-.14-8.42c0-.27,.07-.54,.21-.8l.59-1.14-.05,1.29c-.01,.29-.09,.55-.21,.78-.16,.15-.3,.31-.42,.49-.02-.21-.05-.42-.12-.62Zm-2.59,9.7c.01-.28,.09-.55,.21-.78,.16-.15,.3-.31,.42-.49,.02,.21,.05,.42,.12,.62,0,.27-.07,.54-.21,.8l-.59,1.14,.05-1.29Zm-.08-11.64l.6,1.14c.13,.25,.19,.52,.21,.78-.06,.21-.1,.42-.12,.64-.12-.17-.25-.34-.41-.48-.13-.24-.21-.51-.22-.8l-.05-1.28Zm-12,6.59c0-.74,.07-1.45,.19-2.16l4.61,.2,2.77,1.84-2.77,1.83-4.66,.2c-.09-.63-.15-1.26-.15-1.91Zm8.43,1.01c.25-.13,.52-.19,.78-.21,.21,.06,.42,.1,.64,.12-.17,.12-.34,.25-.48,.41-.24,.13-.51,.21-.8,.22l-1.28,.05,1.14-.6Zm-.01-2.27l-1.14-.59,1.29,.05c.28,.01,.55,.09,.78,.21,.15,.16,.31,.3,.49,.42-.21,.02-.42,.05-.62,.12-.27,0-.54-.07-.8-.21Zm1.3,4.78c.15-.24,.35-.43,.57-.57,.21-.05,.42-.12,.61-.22-.09,.19-.16,.39-.21,.6-.14,.23-.33,.43-.58,.59l-1.08,.69,.69-1.09Zm.57-6.71c-.23-.14-.43-.33-.59-.58l-.69-1.08,1.09,.69c.24,.15,.43,.35,.57,.57,.05,.21,.12,.42,.22,.61-.19-.09-.39-.16-.6-.21Zm.36-2.28l-2.97-1.48-2.44-3.84c1.06-.84,2.24-1.52,3.52-2.02l2.09,4.01-.21,3.32Zm-2.25,2.26l-3.31,.21-4.08-2.13c.51-1.27,1.21-2.45,2.06-3.5l3.85,2.45,1.48,2.98Zm-5.01,.31l-3.12,.19c.13-.65,.32-1.29,.54-1.9l2.58,1.71Zm0,5.55l-2.66,1.76c-.21-.63-.38-1.29-.51-1.96l3.16,.2Zm1.69,.1l3.32,.21-1.48,2.97-3.99,2.54c-.84-1.07-1.51-2.26-2.01-3.54l4.16-2.17Zm2.61,3.94l2.98-1.48,.21,3.31-2.21,4.24c-1.28-.51-2.47-1.2-3.52-2.05l2.55-4.01Zm3.29,3.53l.2,3.28c-.69-.13-1.36-.32-2.01-.55l1.81-2.73Zm-.02-20.71l-1.67-2.51c.6-.21,1.22-.38,1.85-.5l-.19,3.01Zm-6.16,.06l1.35,2.72-2.73-1.36c.43-.49,.88-.94,1.37-1.36Zm-1.53,19.32l2.9-1.44-1.45,2.9c-.52-.45-1.01-.94-1.45-1.46Zm8.44,4.69l.2-4.77,1.84-2.77,1.83,2.77,.2,4.78c-.67,.1-1.35,.17-2.04,.17s-1.37-.07-2.04-.17Zm11.07-3.23l-1.45-2.91,2.91,1.45c-.45,.53-.94,1.01-1.45,1.47Z"/><circle class="cls-13" cx="250.42" cy="123.21" r="2.84"/><circle class="cls-11" cx="250.42" cy="123.21" r="1.8"/></g></g></g></g></g></g></svg>